<svg xmlns="http://www.w3.org/2000/svg" width="24" height="24" viewBox="0 0 24 24"><path fill="currentColor" fill-rule="evenodd" stroke="currentColor" stroke-linecap="round" stroke-linejoin="round" stroke-width="1.5" d="M12 22.072c-1.51 0-2.34 0-3.03-.47c-.29-.19-.56-.46-.76-.77c-.46-.67-.46-1.5-.46-3.01v0v-1.25H6.5h0c-1.51 0-2.34 0-3.03-.47c-.29-.19-.56-.46-.76-.77c-.46-.67-.46-1.5-.46-3.01v0c0-1.51 0-2.34.47-3.03c.19-.29.46-.56.77-.76c.67-.46 1.5-.46 3.01-.46h1.25v-1.25v0c0-1.51 0-2.34.47-3.03c.19-.29.46-.56.77-.76c.67-.46 1.5-.46 3.01-.46h0c1.51 0 2.34 0 3.03.47c.29.19.56.46.76.77c.46.67.46 1.5.46 3.01v1.25h1.25c1.51 0 2.34 0 3.03.47c.29.19.56.46.76.77c.46.67.46 1.5.46 3.01v0c0 1.51 0 2.34-.47 3.03c-.19.29-.46.56-.77.76c-.67.46-1.5.46-3.01.46h0h-1.25v1.25c0 1.51 0 2.34-.47 3.03c-.19.29-.46.56-.77.76c-.67.46-1.5.46-3.01.46m-5.5-12.5c-1.17 0-1.88 0-2.19.21c-.15.09-.26.21-.34.33c-.22.33-.22 1.03-.22 2.21v0c0 1.18 0 1.88.21 2.19c.09.15.21.26.33.34c.33.22 1.03.22 2.21.22h1.25v-2.75c0-.41.34-.75.75-.75h6.25v-4.75v0c0-1.17 0-1.88-.21-2.19c-.09-.15-.21-.26-.33-.34c-.33-.22-.99-.22-2.21-.22h0c-1.22 0-1.88 0-2.19.21c-.15.09-.26.21-.34.33c-.22.33-.22 1.03-.22 2.21v1.25H12c.41 0 .75.34.75.75s-.34.75-.75.75zm9.75 0v2.75c0 .41-.34.75-.75.75H9.25v4.75c0 1.17 0 1.88.21 2.19c.09.15.21.26.33.34c.33.22 1.03.22 2.21.22h0c1.18 0 1.88 0 2.19-.21c.15-.09.26-.21.34-.33c.22-.33.22-1.03.22-2.21v0v-1.25H12c-.41 0-.75-.34-.75-.75s.34-.75.75-.75h5.5c1.17 0 1.88 0 2.19-.21c.15-.09.26-.21.34-.33c.22-.33.22-1.03.22-2.21v0c0-1.18 0-1.88-.21-2.19c-.09-.15-.21-.26-.33-.34c-.33-.22-1.03-.22-2.21-.22h0zm-6-3.74c0 .41.34.75.75.75v.01c.41 0 .75-.34.75-.76a.749.749 0 1 0-1.5 0m2 12.99c0 .41.34.75.75.75v.01c.41 0 .75-.34.75-.76a.749.749 0 1 0-1.5 0"/></svg>